<svg xmlns="http://www.w3.org/2000/svg" width="16" height="16" version="1.1" viewBox="0 0 16 16"><defs><filter id="a" width="1.432" height="1.309" x="-.216" y="-.154" color-interpolation-filters="sRGB"><feGaussianBlur stdDeviation=".9"/></filter></defs><path fill-rule="evenodd" d="m8 1c-1.108 0-2 0.892-2 2v4c0 1.108 0.892 2 2 2s2-0.892 2-2v-4c0-1.108-0.892-2-2-2zm-4 4c-0.554 0-1 0.446-1 1v1a4.988 4.988 0 0 0 4 4.9v1.1h-2v2h6v-2h-2v-1.1c2.287-0.46 4-2.473 4-4.9v-1c0-0.554-0.446-1-1-1s-1 0.446-1 1v1c0 1.662-1.338 3-3 3s-3-1.338-3-3v-1c0-0.554-0.446-1-1-1z" filter="url(#a)" opacity=".5"/><path fill="#fff" fill-rule="evenodd" d="m8 1c-1.108 0-2 0.892-2 2v4c0 1.108 0.892 2 2 2s2-0.892 2-2v-4c0-1.108-0.892-2-2-2zm-4 4c-0.554 0-1 0.446-1 1v1a4.988 4.988 0 0 0 4 4.9v1.1h-2v2h6v-2h-2v-1.1c2.287-0.46 4-2.473 4-4.9v-1c0-0.554-0.446-1-1-1s-1 0.446-1 1v1c0 1.662-1.338 3-3 3s-3-1.338-3-3v-1c0-0.554-0.446-1-1-1z"/></svg>