<svg xmlns="http://www.w3.org/2000/svg" width="16" height="16" version="1.1" viewBox="0 0 16 16"><defs><filter id="a" width="1.309" height="1.432" x="-.154" y="-.216" color-interpolation-filters="sRGB"><feGaussianBlur stdDeviation=".9"/></filter></defs><path d="m3 3c-1.108 0-2 0.892-2 2v6c0 1.108 0.892 2 2 2h6c1.108 0 2-0.892 2-2v-1.334l4 3.334v-10l-4 3.334v-1.334c0-1.108-0.892-2-2-2z" filter="url(#a)" opacity=".5"/><path fill="#fff" d="m3 3c-1.108 0-2 0.892-2 2v6c0 1.108 0.892 2 2 2h6c1.108 0 2-0.892 2-2v-1.334l4 3.334v-10l-4 3.334v-1.334c0-1.108-0.892-2-2-2z"/></svg>